<svg width="38" height="25" viewBox="0 0 38 25" fill="none" xmlns="http://www.w3.org/2000/svg">
<path d="M26.7985 14.8356C27.6495 15.0616 28.5274 15.1703 29.4078 15.1589V23.5867C29.381 23.9427 29.2314 24.2782 28.9845 24.536C28.7376 24.7937 28.4088 24.9577 28.0544 24.9998H26.5062C26.108 24.9563 25.7405 24.7654 25.476 24.4646C25.2116 24.1637 25.0692 23.7748 25.0771 23.3743V14.1843C25.6363 14.4383 26.2113 14.6558 26.7985 14.8356ZM25.0771 13.0885C23.8229 12.4492 22.6997 11.5804 21.7657 10.5271C20.8268 9.50415 20.2608 8.19408 20.1596 6.80924C20.1172 5.63337 20.3944 4.46801 20.9619 3.43724C21.4462 2.64593 22.1124 1.98161 22.905 1.49947C23.6977 1.01734 24.594 0.731308 25.5194 0.66514C25.5654 0.66514 25.6116 0.665907 25.6582 0.66744C27.0501 0.71344 30.4134 1.02624 33.4341 5.02644C33.2707 5.03263 33.1078 5.04715 32.946 5.06994C32.1356 5.20626 31.3631 5.51228 30.6792 5.96794C29.9953 6.42361 29.4154 7.01863 28.9775 7.71404C28.1389 9.00846 27.7085 10.5249 27.7421 12.0668C27.7501 12.2947 27.7788 12.5213 27.828 12.7439C27.9404 13.2344 28.1436 13.6996 28.4273 14.1152C27.9746 14.0819 27.5266 14.0028 27.0899 13.879C26.3982 13.6717 25.725 13.4073 25.0771 13.0885ZM26.1427 6.75554C26.3357 6.88815 26.5686 6.95013 26.8021 6.93102C27.0355 6.91191 27.2552 6.81288 27.4242 6.65064L27.4822 6.57824C27.5884 6.46527 27.6664 6.32879 27.7099 6.17993C27.7533 6.03107 27.7609 5.87405 27.7321 5.72168C27.7033 5.56931 27.6389 5.42591 27.5441 5.30317C27.4494 5.18044 27.3269 5.08184 27.1868 5.01544L25.6768 4.04364C25.4663 3.89687 25.2127 3.82513 24.9565 3.83995C24.7004 3.85477 24.4567 3.95528 24.2646 4.12534L24.1797 4.20774C24.0917 4.31538 24.0278 4.44068 23.9925 4.57515C23.9572 4.70962 23.9511 4.85012 23.9748 4.98712C23.9986 5.12412 24.0514 5.25442 24.1299 5.3692C24.2084 5.48397 24.3106 5.58053 24.4297 5.65234L26.1427 6.75554ZM37.8772 10.951C37.8384 11.1529 37.7859 11.352 37.7201 11.5467C37.5593 12.0089 37.3458 12.451 37.0837 12.8641C36.7691 13.4193 36.368 13.9208 35.8957 14.3498C35.5068 14.7364 35.0433 15.0397 34.5333 15.2411C34.0233 15.4425 33.4776 15.5379 32.9296 15.5213C32.3002 15.5227 31.6753 15.4162 31.082 15.2064C31.0078 15.1717 30.9497 15.1374 30.8799 15.1028C30.5981 14.9655 30.325 14.8108 30.0624 14.6396C29.8441 14.4975 29.6387 14.3365 29.4486 14.1584C29.4342 14.1447 29.4218 14.1309 29.4079 14.1171C28.9769 13.6949 28.6806 13.1545 28.5565 12.5641C28.5259 12.4288 28.5056 12.2914 28.4957 12.153C28.3391 10.3309 29.4334 6.42964 33.0723 5.80894C33.3005 5.7688 33.5318 5.74803 33.7636 5.74684C33.831 5.74684 33.9026 5.75794 33.9718 5.76214C34.237 5.77413 34.4994 5.82203 34.7518 5.90454C34.7992 5.92104 34.8407 5.94794 34.8872 5.96574C35.1348 6.05816 35.3746 6.17046 35.6042 6.30154C36.3436 6.72778 36.9543 7.34558 37.372 8.08984C37.6363 8.57845 37.8162 9.10815 37.9043 9.65664C37.9643 10.0868 37.9551 10.5238 37.8772 10.951ZM36.5735 10.171C36.4248 9.68234 35.8617 9.69304 35.5111 10.171L33.7687 12.5724C33.502 13.0717 33.7038 13.6774 34.1713 13.6348H34.1724C34.9064 13.416 35.5441 12.9537 35.9805 12.3242C36.4169 11.6947 36.626 10.9352 36.5735 10.171ZM9.12348 15.1587V23.5865C9.15022 23.9425 9.29986 24.2781 9.54676 24.5359C9.79367 24.7937 10.1225 24.9577 10.477 24.9998H12.0251C12.4233 24.9564 12.7908 24.7654 13.0552 24.4646C13.3197 24.1637 13.462 23.7748 13.4542 23.3743V14.1843C12.895 14.4381 12.32 14.6555 11.7329 14.8352C10.8819 15.0613 10.0039 15.17 9.12348 15.1587ZM17.5692 3.43704C18.1366 4.46781 18.4139 5.63317 18.3715 6.80904C18.2703 8.19391 17.7045 9.50406 16.7657 10.5271C15.8318 11.5805 14.7086 12.4493 13.4544 13.0885C12.8065 13.4072 12.1332 13.6714 11.4415 13.8785C11.004 14.0024 10.555 14.0816 10.1015 14.1148C10.3867 13.6997 10.5908 13.2344 10.7032 12.7434C10.7523 12.5208 10.7811 12.2942 10.7891 12.0663C10.8225 10.5246 10.3921 9.00832 9.55368 7.71404C9.11583 7.01867 8.53601 6.42366 7.85219 5.96798C7.16838 5.5123 6.39601 5.20624 5.58568 5.06984C5.42382 5.04705 5.26091 5.03253 5.09758 5.02634C8.11828 1.02634 11.4816 0.713339 12.8735 0.667339C12.9202 0.665839 12.9661 0.665039 13.0123 0.665039C13.9376 0.731327 14.8338 1.01743 15.6263 1.49957C16.4189 1.98172 17.0849 2.6458 17.5692 3.43704ZM14.3519 4.20704L14.267 4.12464C14.0749 3.95458 13.8312 3.85407 13.575 3.83925C13.3189 3.82443 13.0652 3.89617 12.8548 4.04294L11.3448 5.01474C11.2047 5.08115 11.0822 5.17974 10.9874 5.30247C10.8927 5.42521 10.8283 5.5686 10.7994 5.72096C10.7706 5.87333 10.7783 6.03034 10.8217 6.1792C10.8651 6.32806 10.9431 6.46455 11.0493 6.57754L11.1074 6.64994C11.2763 6.81218 11.496 6.91121 11.7295 6.93032C11.9629 6.94943 12.1958 6.88745 12.3889 6.75484L14.1027 5.65164C14.2216 5.57977 14.3236 5.48319 14.402 5.36845C14.4803 5.2537 14.5331 5.12347 14.5567 4.98656C14.5804 4.84966 14.5743 4.70927 14.539 4.5749C14.5037 4.44053 14.4398 4.31462 14.3519 4.20704ZM9.12348 14.117C9.10958 14.1308 9.09718 14.1445 9.08278 14.1582C8.89266 14.3363 8.68727 14.4973 8.46898 14.6394C8.2063 14.8106 7.93324 14.9653 7.65138 15.1026C7.58138 15.1372 7.52358 15.1715 7.44938 15.2062C6.85603 15.416 6.23111 15.5225 5.60178 15.5211C5.05373 15.5377 4.50807 15.4423 3.9981 15.241C3.48813 15.0396 3.02455 14.7364 2.63568 14.3498C2.16325 13.9207 1.76219 13.4191 1.44758 12.8638C1.18547 12.4507 0.971921 12.0086 0.811176 11.5464C0.745352 11.3517 0.692864 11.1526 0.654076 10.9507C0.57611 10.5234 0.566961 10.0864 0.626976 9.65624C0.715107 9.10788 0.895099 8.57832 1.15938 8.08984C1.57721 7.34564 2.18807 6.72794 2.92758 6.30184C3.15694 6.17087 3.39652 6.05867 3.64398 5.96634C3.69078 5.94844 3.73248 5.92144 3.77998 5.90484C4.03234 5.82233 4.29473 5.77443 4.55998 5.76244C4.62918 5.75824 4.70078 5.74714 4.76818 5.74714C4.99995 5.74833 5.2312 5.76911 5.45948 5.80924C9.09838 6.42994 10.1927 10.3312 10.0361 12.1533C10.0262 12.2917 10.0058 12.4291 9.97528 12.5644C9.85104 13.1549 9.55457 13.6948 9.12348 14.117ZM4.76268 12.5724L3.02028 10.1712C2.66968 9.69324 2.10658 9.68254 1.95788 10.1712C1.90747 10.5458 1.93224 10.9266 2.03075 11.2915C2.12925 11.6563 2.29951 11.9979 2.53158 12.2961C2.72825 12.6325 2.99193 12.9249 3.30628 13.1552C3.62063 13.3855 3.97893 13.5488 4.35898 13.6348C4.82658 13.6774 5.02938 13.0717 4.76268 12.5724Z" fill="#1D1D1F"/>
</svg>
