<svg width="32" height="33" viewBox="0 0 32 33" fill="none" xmlns="http://www.w3.org/2000/svg">
<path d="M6.94278 0.711314C4.20198 0.811314 2.30928 2.57781 0.689979 4.30231C-0.0341212 5.07341 0.141879 5.64231 0.141879 7.24751C0.141879 9.42021 0.0946788 9.68091 0.715079 10.6164C1.37076 11.6901 2.28334 12.5837 3.37053 13.2167C4.45773 13.8497 5.68537 14.2022 6.94278 14.2424C11.1156 14.5641 14.7169 11.2214 14.7169 7.48491C14.7169 3.74841 11.1248 0.558714 6.94278 0.711314ZM3.14478 9.54571C3.14478 9.72792 3.0724 9.90266 2.94356 10.0315C2.81472 10.1603 2.63998 10.2327 2.45778 10.2327C2.27557 10.2327 2.10083 10.1603 1.972 10.0315C1.84316 9.90266 1.77078 9.72792 1.77078 9.54571V5.50791C1.77078 5.32571 1.84316 5.15097 1.972 5.02213C2.10083 4.89329 2.27557 4.82091 2.45778 4.82091C2.63998 4.82091 2.81472 4.89329 2.94356 5.02213C3.0724 5.15097 3.14478 5.32571 3.14478 5.50791V9.54571ZM11.1283 7.52111C11.1275 7.79603 11.0179 8.05944 10.8235 8.25383C10.6291 8.44823 10.3657 8.5578 10.0908 8.55861H7.84708C7.57214 8.55793 7.30865 8.4484 7.11425 8.25397C6.91984 8.05955 6.81034 7.79606 6.80968 7.52111V7.39231C6.81037 7.11739 6.91988 6.85392 7.11428 6.65952C7.30869 6.46512 7.57215 6.3556 7.84708 6.35491H10.0903C10.3652 6.35557 10.6287 6.46508 10.8231 6.65949C11.0176 6.85389 11.1271 7.11737 11.1278 7.39231L11.1283 7.52111ZM7.35478 15.6475C9.20494 15.7883 11.0466 15.2821 12.5648 14.2153V31.1994C12.4932 31.6701 12.2659 32.1033 11.9192 32.4297C11.5726 32.7561 11.1266 32.957 10.6524 33.0002H8.88238C8.49007 32.955 8.1249 32.7774 7.84717 32.4966C7.56944 32.2159 7.39575 31.8488 7.35478 31.456C7.35478 31.456 7.36798 15.6608 7.35478 15.6475ZM16.4686 7.48491C16.4686 11.2214 20.0699 14.5641 24.2427 14.2424C25.5001 14.2022 26.7277 13.8497 27.8149 13.2167C28.9021 12.5837 29.8147 11.6901 30.4704 10.6164C31.0904 9.68091 31.0436 9.42021 31.0436 7.24751C31.0436 5.64211 31.2196 5.07341 30.4955 4.30231C28.8762 2.57781 26.9835 0.811314 24.2427 0.711314C20.0602 0.558714 16.4686 3.74841 16.4686 7.48491ZM27.7967 5.50791C27.7967 5.32571 27.8691 5.15097 27.9979 5.02213C28.1267 4.89329 28.3015 4.82091 28.4837 4.82091C28.6659 4.82091 28.8406 4.89329 28.9695 5.02213C29.0983 5.15097 29.1707 5.32571 29.1707 5.50791V9.54571C29.1707 9.72792 29.0983 9.90266 28.9695 10.0315C28.8406 10.1603 28.6659 10.2327 28.4837 10.2327C28.3015 10.2327 28.1267 10.1603 27.9979 10.0315C27.8691 9.90266 27.7967 9.72792 27.7967 9.54571V5.50791ZM20.0577 7.39231C20.0584 7.11744 20.1678 6.85402 20.3622 6.65962C20.5565 6.46523 20.8199 6.35568 21.0948 6.35491H23.338C23.6129 6.3556 23.8764 6.46512 24.0708 6.65952C24.2652 6.85392 24.3747 7.11739 24.3754 7.39231V7.52111C24.3747 7.79606 24.2652 8.05955 24.0708 8.25397C23.8764 8.4484 23.6129 8.55793 23.338 8.55861H21.0948C20.8199 8.5578 20.5565 8.44823 20.3621 8.25383C20.1677 8.05944 20.0581 7.79603 20.0573 7.52111L20.0577 7.39231ZM23.7177 31.456C23.7177 32.1693 22.6571 33.0002 21.9306 33.0002H20.1606C19.7214 32.9448 19.3173 32.7315 19.0237 32.4002C18.7301 32.0689 18.567 31.6421 18.5648 31.1994V14.2153C20.0616 15.2813 21.8851 15.7882 23.7174 15.6475C23.714 15.6658 23.7177 31.456 23.7177 31.456Z" fill="#1D1D1F"/>
</svg>
