<svg width="35" height="38" viewBox="0 0 35 38" fill="none" xmlns="http://www.w3.org/2000/svg">
<path d="M28.238 7.92407C25.1274 5.30923 21.1604 3.93583 17.0989 4.06767C13.0812 3.97188 9.16403 5.33022 6.06817 7.89277C7.33408 6.15165 8.99241 4.73329 10.9087 3.75262C12.8251 2.77196 14.9455 2.25658 17.0982 2.24827L17.1306 2.24727L17.1629 2.24827C19.321 2.2793 21.4429 2.80753 23.3637 3.7919C25.2845 4.77628 26.9525 6.1903 28.238 7.92407ZM34.1288 17.3756C34.1265 17.2538 34.1223 17.1343 34.118 17.015L31.994 17.1266C31.997 17.4021 31.9951 17.6103 32.0059 17.7407C32.0209 17.9258 32.0615 17.9698 32.2132 17.9607C32.3649 17.9516 32.4978 17.9482 32.4978 17.9482C32.4978 17.9482 32.5008 18.6199 32.5008 19.3935C32.4828 19.6255 32.5536 19.8557 32.6989 20.0376C32.6736 20.0237 32.6529 20.0116 32.6259 19.9969C32.2736 19.8488 31.8827 19.8194 31.5123 19.9131C31.2296 19.9995 30.9568 20.1152 30.6982 20.2582C30.8092 21.0119 30.6506 21.7806 30.2502 22.4288C29.5062 23.9414 25.7763 31.948 23.9271 34.5125C23.5226 35.1532 22.994 35.7065 22.3723 36.1396C22.3924 36.389 22.431 36.6366 22.4878 36.8803C22.5765 37.1568 22.7377 37.4044 22.9547 37.5974C23.1717 37.7904 23.4365 37.9217 23.7215 37.9776C25.2502 38.2286 26.6724 36.3411 27.2179 35.5352C27.7634 34.7293 28.6739 33.2703 30.5779 29.7575C32.1773 26.8067 33.8263 23.1739 33.7519 21.835C33.7239 21.3996 33.5955 20.9765 33.3769 20.599C33.2754 20.4457 33.1442 20.3144 32.991 20.2129C33.0307 20.2225 33.0714 20.2279 33.1123 20.2292C33.2655 20.2292 33.7329 20.1301 33.7329 19.4153C33.7329 18.7005 33.7159 17.8829 33.7159 17.8829C33.7159 17.8829 33.7483 17.8803 33.9464 17.871C34.0981 17.8639 34.1311 17.784 34.1308 17.5658C34.1306 17.5088 34.1306 17.4452 34.1288 17.3756ZM4.22276 10.0285C4.51596 9.42721 4.7683 8.80687 4.97807 8.17167C6.46346 5.16347 11.2055 1.40647 17.0975 1.40647L17.1306 1.40547L17.1632 1.40647C23.0554 1.40647 27.7972 5.16347 29.2832 8.17167C29.4927 8.80689 29.745 9.42724 30.0382 10.0285C31.1544 11.9376 31.814 14.0789 31.9656 16.2852L34.0703 16.1746C33.9017 13.5059 33.0757 10.9204 31.6661 8.64827C31.3751 8.24698 31.0615 7.86259 30.7269 7.49697C29.2479 5.2449 27.2364 3.39222 24.8706 2.10295C22.5048 0.81369 19.8577 0.127615 17.1635 0.105469L17.1306 0.106269L17.098 0.105469C14.4037 0.127512 11.7565 0.813541 9.39062 2.10281C7.02477 3.39209 5.01332 5.24482 3.53437 7.49697C3.19949 7.86247 2.88584 8.24687 2.59497 8.64827C1.18501 10.9208 0.359016 13.5069 0.190565 16.176L2.29537 16.2865C2.44673 14.0798 3.10638 11.938 4.22276 10.0285ZM11.4569 25.6222C10.3491 23.3851 9.08868 21.2268 7.68467 19.1627C7.34712 18.7722 6.88974 18.5046 6.38399 18.4016C5.87825 18.2986 5.35263 18.366 4.88927 18.5934C4.76178 18.6859 4.64101 18.7874 4.52786 18.897C3.87696 19.664 3.97267 20.564 4.58387 21.807C5.32787 23.3196 9.05776 31.3262 10.907 33.8908C11.8246 35.1631 12.5561 35.8946 13.697 35.7954C14.0559 35.7652 14.3935 35.6126 14.6532 35.363C15.0103 34.89 15.1989 34.3111 15.1891 33.7186C15.0996 32.8504 14.8111 32.0146 14.346 31.2762C14.2217 31.0279 11.928 26.5893 11.4569 25.6222ZM10.2719 34.5122C8.42266 31.9478 4.69257 23.9412 3.94867 22.4286C3.5482 21.7804 3.3895 21.0117 3.50057 20.258C3.24187 20.115 2.969 19.9993 2.68637 19.9129C2.32752 19.8253 1.95042 19.8505 1.60637 19.9849C1.71807 19.8086 1.77165 19.6017 1.75956 19.3934C1.75956 18.6197 1.76257 17.9481 1.76257 17.9481C1.76257 17.9481 1.89577 17.9512 2.04747 17.9605C2.19917 17.9698 2.23957 17.9259 2.25477 17.7405C2.26537 17.6105 2.26357 17.4025 2.26647 17.1276L0.142465 17.016C0.138065 17.135 0.133865 17.254 0.131665 17.3753C0.129765 17.4753 0.131665 17.563 0.132865 17.636C0.136265 17.8016 0.182865 17.8644 0.314365 17.8705C0.512365 17.8798 0.544965 17.8824 0.544965 17.8824C0.544965 17.8824 0.527665 18.7002 0.527665 19.4151C0.527665 20.13 0.995065 20.229 1.14827 20.229C1.15827 20.229 1.17347 20.2274 1.18737 20.2263C1.04292 20.3259 0.918944 20.4524 0.822165 20.5988C0.603661 20.9764 0.475358 21.3994 0.447265 21.8348C0.372765 23.1737 2.02187 26.8065 3.62127 29.7573C5.52517 33.2701 6.43557 34.729 6.98127 35.5349C7.52697 36.3408 8.94886 38.2284 10.4776 37.9774C10.7625 37.9215 11.0273 37.7903 11.2442 37.5973C11.4612 37.4043 11.6224 37.1567 11.7111 36.8802C11.7679 36.6365 11.8066 36.3889 11.8267 36.1395C11.2049 35.7064 10.6763 35.153 10.2719 34.5122ZM29.6152 21.8067C30.2264 20.564 30.3221 19.664 29.6712 18.8967C29.558 18.7871 29.4372 18.6857 29.3098 18.5931C28.8464 18.3657 28.3207 18.2983 27.8149 18.4013C27.3092 18.5043 26.8518 18.7719 26.5142 19.1624C25.1103 21.2266 23.8499 23.3848 22.7421 25.6219C22.2709 26.589 19.9772 31.0276 19.8533 31.2755C19.3882 32.014 19.0997 32.8498 19.0102 33.718C19.0003 34.3106 19.189 34.8895 19.5463 35.3624C19.8058 35.6121 20.1435 35.7648 20.5024 35.7948C21.6432 35.894 22.3745 35.1626 23.2924 33.8902C25.1412 31.3259 28.8713 23.3193 29.6152 21.8067Z" fill="#1D1D1F"/>
</svg>
