<svg width="33" height="26" viewBox="0 0 33 26" fill="none" xmlns="http://www.w3.org/2000/svg">
<path d="M5.76331 16.1211L5.76871 16.1239C5.76141 16.1245 5.75491 16.1187 5.76331 16.1211ZM5.77191 16.1232L5.76871 16.1239L5.77191 16.1277L5.77541 16.1371L5.78291 16.1138L5.77541 16.1211L5.77191 16.1232ZM14.8376 7.73409C14.7043 9.11922 14.0919 10.4144 13.1059 11.3964C13.0625 11.4464 13.025 11.4889 12.9931 11.5264C12.4375 12.0768 11.8362 12.5791 11.1957 13.0279L11.193 13.0313L11.1645 13.0507C10.9235 13.2269 10.6733 13.3902 10.415 13.54L10.1123 13.7087C9.61201 13.9489 9.09475 14.152 8.56471 14.3165L8.52621 14.3318C8.28623 14.4131 8.03809 14.468 7.78621 14.4954C7.59209 14.528 7.39609 14.5482 7.19941 14.5559C6.65872 14.599 6.11587 14.6084 5.57401 14.584C4.466 14.426 3.43265 13.9334 2.61221 13.1721C2.1096 12.7858 1.67183 12.3217 1.31541 11.7975C1.02441 11.4076 0.778951 10.9857 0.583808 10.54C0.503464 10.3525 0.435257 10.16 0.379608 9.96368C0.24454 9.53277 0.172758 9.08453 0.166508 8.63298C0.101109 7.97238 0.235693 7.30737 0.552808 6.72418C0.741023 6.38826 0.951946 6.06558 1.18411 5.75838C1.17241 5.75658 1.15751 5.75129 1.14601 5.74969C2.13674 4.36668 3.40603 3.20639 4.87221 2.34348C6.33445 1.42158 8.03288 0.943985 9.76131 0.968685C10.538 0.984185 11.8713 1.36348 13.5913 3.38698C14.487 4.65308 14.9264 6.18573 14.8376 7.73409ZM4.74831 10.8518C4.58813 10.4423 4.38212 10.0522 4.13421 9.68908C3.88632 9.33147 3.59694 9.0045 3.27211 8.71498C2.79451 8.34358 2.10681 8.15099 1.95681 8.64669C1.90106 9.03176 1.92447 9.42417 2.02561 9.79988C2.12674 10.1756 2.30348 10.5267 2.54501 10.8318C2.74667 11.1738 3.01629 11.471 3.33722 11.7048C3.65816 11.9386 4.0236 12.1042 4.41101 12.1913C4.88841 12.23 4.98501 11.4471 4.74831 10.8518ZM12.293 4.17708L12.243 4.10859C12.0944 3.90654 11.8718 3.77153 11.624 3.73302C11.3761 3.69452 11.1231 3.75566 10.9202 3.90308L8.61501 5.58858C8.41297 5.73721 8.27795 5.95976 8.23945 6.2076C8.20094 6.45545 8.26208 6.70847 8.40951 6.91138L8.45951 6.97978C8.60812 7.18185 8.83066 7.31688 9.07852 7.35539C9.32638 7.39389 9.5794 7.33274 9.78231 7.18529L12.0875 5.49998C12.2896 5.35139 12.4247 5.12882 12.4632 4.88093C12.5017 4.63305 12.4405 4.37999 12.293 4.17708ZM5.41501 24.5853C5.43947 24.9561 5.5992 25.3049 5.8639 25.5657C6.12859 25.8265 6.47981 25.981 6.85091 26H8.47251C8.87929 25.9511 9.25491 25.7575 9.53077 25.4546C9.80662 25.1516 9.9643 24.7596 9.97501 24.35V15.2355C8.51821 15.7868 6.9726 16.0659 5.41501 16.0592C5.41361 16.092 5.41501 24.1706 5.41501 24.5853ZM27.0613 16.1239C27.0686 16.1245 27.0751 16.1187 27.0667 16.1211L27.0613 16.1239ZM27.0546 16.1211L27.0471 16.1138L27.0546 16.1371L27.0581 16.1277L27.0613 16.1239L27.0581 16.1232L27.0546 16.1211ZM32.6635 8.63258C32.6573 9.08413 32.5855 9.53237 32.4504 9.96328C32.3948 10.1596 32.3266 10.3521 32.2462 10.5396C32.0512 10.9852 31.8059 11.4072 31.515 11.7971C31.1586 12.3213 30.7208 12.7854 30.2182 13.1717C29.3978 13.933 28.3644 14.4256 27.2564 14.5836C26.7146 14.608 26.1717 14.5986 25.631 14.5555C25.4343 14.5478 25.2383 14.5276 25.0442 14.495C24.7923 14.4676 24.5442 14.4127 24.3042 14.3314L24.2657 14.3161C23.7357 14.1516 23.2184 13.9485 22.7181 13.7083L22.415 13.54C22.1568 13.3904 21.9067 13.2274 21.6657 13.0514L21.6372 13.032L21.6345 13.0286C20.994 12.5798 20.3927 12.0775 19.8371 11.5271C19.8052 11.4893 19.7677 11.4464 19.7243 11.3971C18.7383 10.4151 18.1259 9.11992 17.9926 7.73479C17.9038 6.18626 18.3433 4.65345 19.2392 3.38729C20.9592 1.36379 22.2922 0.984485 23.0692 0.968985C24.7976 0.944284 26.4961 1.42188 27.9583 2.34378C29.4245 3.20669 30.6938 4.36698 31.6845 5.74998C31.673 5.75158 31.6581 5.75688 31.6464 5.75868C31.8786 6.06588 32.0895 6.38856 32.2777 6.72449C32.5945 7.30752 32.7289 7.97227 32.6635 8.63258ZM20.7425 5.49998L23.0479 7.18548C23.2508 7.33294 23.5038 7.39409 23.7517 7.35559C23.9996 7.31708 24.2221 7.18205 24.3707 6.97998L24.4207 6.91158C24.5682 6.70863 24.6293 6.45555 24.5908 6.20765C24.5522 5.95975 24.4171 5.73719 24.215 5.58858L21.9095 3.90308C21.7066 3.75566 21.4536 3.69452 21.2057 3.73302C20.9579 3.77153 20.7353 3.90654 20.5867 4.10859L20.5367 4.17708C20.3892 4.38003 20.3281 4.63311 20.3667 4.881C20.4052 5.12889 20.5403 5.35143 20.7425 5.49998ZM30.8732 8.64688C30.7232 8.15118 30.0355 8.34378 29.5579 8.71518C29.2331 9.00469 28.9437 9.33168 28.6958 9.68929C28.4479 10.0524 28.2419 10.4425 28.0817 10.852C27.8452 11.4473 27.9417 12.2305 28.419 12.192C28.8065 12.1048 29.172 11.9391 29.4929 11.7052C29.8138 11.4712 30.0834 11.174 30.285 10.8318C30.5265 10.5267 30.7033 10.1756 30.8044 9.79988C30.9055 9.42417 30.929 9.03196 30.8732 8.64688ZM27.415 16.0592C25.8574 16.0659 24.3118 15.7868 22.855 15.2355V24.35C22.8657 24.7596 23.0234 25.1516 23.2992 25.4546C23.5751 25.7575 23.9507 25.9511 24.3575 26H25.9791C26.3426 25.9599 26.682 25.7985 26.9425 25.5418C27.2031 25.2851 27.3695 24.9482 27.415 24.5853V16.0592Z" fill="#1D1D1F"/>
</svg>
