<svg width="33" height="32" viewBox="0 0 33 32" fill="none" xmlns="http://www.w3.org/2000/svg">
<path d="M25.2327 0H6.94694C3.17554 0 0.0898438 3.0857 0.0898438 6.8571V25.1428C0.0898438 28.9143 3.17554 32 6.94694 32H25.2326C29.0041 32 32.0898 28.9143 32.0898 25.1429V6.8571C32.0898 3.0857 29.0041 0 25.2327 0ZM22.8991 21.6593C22.8217 22.0006 22.6806 22.3216 22.4629 22.6108C22.246 22.8991 21.9679 23.1354 21.6437 23.3125C21.3156 23.492 20.9713 23.5942 20.6038 23.6628C19.9139 23.7916 19.4417 23.8207 18.9982 23.7381C18.5703 23.6584 18.2077 23.4762 17.9178 23.23C17.4882 22.865 17.2203 22.3721 17.1618 21.8568C17.0933 21.2531 17.3103 20.6081 17.7998 20.1329C18.0468 19.8931 18.3571 19.7034 18.7712 19.5546C19.2046 19.3988 19.6829 19.3059 20.4181 19.1685C20.6118 19.1324 20.8054 19.0962 20.9992 19.06C21.2539 19.0125 21.4723 18.9521 21.6484 18.7528C21.8259 18.552 21.8286 18.3113 21.8286 18.069L21.8287 11.9571C21.8287 11.4897 21.6024 11.3622 21.1206 11.448C20.7761 11.5102 13.3787 12.8921 13.3787 12.8921C12.9614 12.9854 12.8148 13.1118 12.8148 13.5913L12.815 22.5468C12.815 22.8979 12.7952 23.2095 12.7154 23.5612C12.638 23.9026 12.4969 24.2236 12.2792 24.5127C12.0623 24.801 11.7841 25.0372 11.46 25.2144C11.1319 25.3939 10.7876 25.5012 10.4201 25.5698C9.73014 25.6987 9.25804 25.7278 8.81444 25.6451C8.38664 25.5654 8.02394 25.3781 7.73414 25.1319C7.30454 24.7669 7.05424 24.274 6.99574 23.7587C6.92714 23.155 7.12664 22.51 7.61624 22.0348C7.86314 21.7951 8.17334 21.6053 8.58754 21.4565C9.02104 21.3007 9.49934 21.2078 10.2344 21.0704C10.4281 21.0343 10.6218 20.9981 10.8155 20.9619C11.0702 20.9143 11.2887 20.8539 11.4647 20.6546C11.6408 20.4552 11.6611 20.2163 11.6611 19.9755C11.6611 18.0805 11.6611 9.662 11.6611 9.662C11.6611 9.523 11.6741 9.4305 11.6818 9.384C11.7173 9.1669 11.8114 8.9808 11.9811 8.8488C12.1221 8.7391 12.3036 8.6635 12.5359 8.6178L12.5393 8.6171L21.4385 6.9541C21.5156 6.9395 22.1589 6.8337 22.2312 6.8279C22.7122 6.7894 22.9823 7.0819 22.9823 7.5568L22.9826 20.6402C22.9827 20.9913 22.9788 21.3075 22.8991 21.6593Z" fill="#1D1D1F"/>
</svg>
