<svg width="46" height="37" viewBox="0 0 46 37" fill="none" xmlns="http://www.w3.org/2000/svg">
<path d="M14.6895 0H5.68945C4.2313 0.00174664 2.83337 0.58177 1.80229 1.61284C0.771223 2.64391 0.1912 4.04185 0.189453 5.5L0.189453 31.5C0.191279 32.9581 0.771328 34.356 1.80238 35.3871C2.83344 36.4181 4.23132 36.9982 5.68945 37H14.6895C16.1476 36.9982 17.5455 36.4181 18.5765 35.3871C19.6076 34.356 20.1876 32.9581 20.1895 31.5V5.5C20.1877 4.04185 19.6077 2.64391 18.5766 1.61284C17.5455 0.58177 16.1476 0.00174664 14.6895 0ZM18.1895 31.5C18.1883 32.4279 17.8192 33.3175 17.1631 33.9736C16.507 34.6298 15.6174 34.9989 14.6895 35H5.68945C4.76154 34.9989 3.87194 34.6298 3.21581 33.9736C2.55967 33.3175 2.19056 32.4279 2.18945 31.5V5.5C2.19056 4.57208 2.55967 3.68249 3.21581 3.02635C3.87194 2.37022 4.76154 2.00111 5.68945 2H14.6895C15.6174 2.00111 16.507 2.37022 17.1631 3.02635C17.8192 3.68249 18.1883 4.57208 18.1895 5.5V31.5ZM44.1895 23.5H45.1895V29.5H44.1895V23.5ZM32.1895 0H38.1895V1H32.1895V0ZM44.1895 15.5H45.1895V21.5H44.1895V15.5ZM32.1895 36H38.1895V37H32.1895V36ZM26.1895 21.5H25.1895V15.5H26.1895V21.5ZM26.1895 13.5H25.1895V7.5H26.1895V13.5ZM26.1895 29.5H25.1895V23.5H26.1895V29.5ZM40.1895 1.05V0.0253C41.555 0.151233 42.8244 0.782244 43.7492 1.79483C44.6739 2.80741 45.1876 4.12867 45.1895 5.5H44.1895C44.1874 4.39596 43.7781 3.33148 43.0401 2.5104C42.302 1.68931 41.287 1.16932 40.1895 1.05ZM44.1895 31.5H45.1895C45.1876 32.8713 44.6739 34.1926 43.7492 35.2052C42.8244 36.2178 41.555 36.8488 40.1895 36.9747V35.95C41.287 35.8307 42.302 35.3107 43.0401 34.4896C43.7781 33.6685 44.1874 32.604 44.1895 31.5ZM30.1895 0.0253V1.05C29.0919 1.16932 28.0769 1.68931 27.3388 2.5104C26.6008 3.33148 26.1915 4.39596 26.1895 5.5H25.1895C25.1914 4.12867 25.705 2.80741 26.6297 1.79483C27.5545 0.782244 28.8239 0.151233 30.1895 0.0253ZM30.1895 35.95V36.9751C28.8238 36.8492 27.5544 36.2181 26.6296 35.2054C25.7048 34.1928 25.1913 32.8714 25.1895 31.5H26.1895C26.1915 32.604 26.6008 33.6685 27.3388 34.4896C28.0769 35.3107 29.0919 35.8307 30.1895 35.95ZM44.1895 7.5H45.1895V13.5H44.1895V7.5Z" fill="#1D1D1F"/>
</svg>
