<svg width="15" height="15" viewBox="0 0 15 15" fill="none" xmlns="http://www.w3.org/2000/svg">
<path d="M14.2679 13.2022L10.3979 9.3322C11.0989 8.4032 11.5199 7.2512 11.5199 6.0002C11.5199 2.9402 9.03092 0.450195 5.96992 0.450195C2.90992 0.450195 0.419922 2.9402 0.419922 6.0002C0.419922 9.0612 2.90992 11.5502 5.96992 11.5502C7.22092 11.5502 8.37292 11.1292 9.30192 10.4282L13.1719 14.2982C13.3229 14.4492 13.5219 14.5262 13.7199 14.5262C13.9179 14.5262 14.1159 14.4502 14.2679 14.2982C14.5709 13.9952 14.5709 13.5052 14.2679 13.2022ZM1.51992 6.0002C1.51992 3.5462 3.51692 1.5502 5.96992 1.5502C8.42392 1.5502 10.4199 3.5472 10.4199 6.0002C10.4199 8.4532 8.42392 10.4502 5.96992 10.4502C3.51592 10.4502 1.51992 8.4542 1.51992 6.0002Z" fill="black" fill-opacity="0.8"/>
</svg>
