<svg width="14" height="15" viewBox="0 0 14 15" fill="none" xmlns="http://www.w3.org/2000/svg">
<path d="M11.2337 3.02828H10.2132C10.1038 2.21726 9.7074 1.47228 9.09595 0.92837C8.48449 0.384462 7.6984 0.0776246 6.88016 0.0634766C6.06192 0.0776246 5.27582 0.384462 4.66437 0.92837C4.05291 1.47228 3.65656 2.21726 3.54716 3.02828H2.52716C1.96595 3.02865 1.42781 3.2517 1.0309 3.64846C0.633992 4.04522 0.410739 4.58327 0.410156 5.14448V12.86C0.410659 13.4211 0.633761 13.9591 1.0305 14.356C1.42724 14.7528 1.96521 14.976 2.52636 14.9767H11.2334C11.7946 14.9762 12.3327 14.753 12.7296 14.3562C13.1265 13.9593 13.3497 13.4212 13.3502 12.86V5.14448C13.3496 4.58335 13.1264 4.04538 12.7296 3.64863C12.3328 3.25189 11.7948 3.02878 11.2337 3.02828ZM6.88016 1.16308C7.40757 1.17454 7.91527 1.36565 8.31934 1.7048C8.72341 2.04395 8.99963 2.51084 9.10236 3.02828H4.65796C4.76068 2.51084 5.03691 2.04395 5.44097 1.7048C5.84504 1.36565 6.35275 1.17454 6.88016 1.16308ZM12.2502 12.86C12.2499 13.1296 12.1427 13.388 11.9521 13.5787C11.7615 13.7693 11.5031 13.8767 11.2336 13.8771H2.52666C2.2571 13.8766 1.99872 13.7693 1.80817 13.5786C1.61762 13.388 1.51045 13.1295 1.51016 12.86V5.14448C1.51047 4.87496 1.61768 4.61656 1.80826 4.42598C1.99884 4.2354 2.25723 4.12819 2.52676 4.12788H11.2338C11.5032 4.12825 11.7616 4.23548 11.9521 4.42605C12.1427 4.61663 12.2498 4.87499 12.2502 5.14448V12.86Z" fill="black" fill-opacity="0.8"/>
</svg>
